#!OML:ASF I:\Actors\actors\Patient Classification 1\Patient 1\Session 1\Subject1.ASF
:FULLY-SPECIFIED
:DEGREES
1388
root 0.14949 17.5986 7.74907 21.5901 -5.49382 -8.65476
lowerback 5.87765 0.934831 5.67536
upperback 1.02839 1.70807 4.95757
thorax -2.22265 0.816581 1.81124
lowerneck -13.7409 -3.77842 -4.42373
upperneck 6.86943 -4.75426 4.84277
head 4.50938 -2.16503 1.83678
rclavicle -1.07344e-014 -8.11041e-014
rhumerus 48.1047 14.1859 -69.7139
rradius 40.7287
rwrist 33.5763
rhand 4.17965 -68.7018
rfingers 7.12502
rthumb 29.5872 -623.637
lclavicle -1.07344e-014 -8.11041e-014
lhumerus 55.6193 -21.6883 86.6018
lradius 14.3247
lwrist -35.0912
lhand -20.2306 3.77942
lfingers 7.12502
lthumb 6.11714 33.6711
rfemur -25.4967 25.3541 13.3349
rtibia 6.86851
rfoot -8.20968 -24.0327
rtoes -0.704342
lfemur -13.2702 -55.3292 4.11265
ltibia -5.83648
lfoot -67.0971 54.1773
ltoes 44.3409
1389
root 0.151631 17.5978 7.74858 21.5934 -5.51589 -8.64195
lowerback 5.87934 0.931703 5.68131
upperback 1.0285 1.70411 4.94597
thorax -2.22297 0.81452 1.79613
lowerneck -14.185 -3.91708 -4.413
upperneck 7.25608 -4.93404 4.80022
head 4.7078 -2.24673 1.79769
rclavicle -1.78906e-015 -7.31528e-014
rhumerus 48.0443 14.2941 -69.5836
rradius 40.9637
rwrist 33.6275
rhand 3.23168 -69.1203
rfingers 7.12502
rthumb 28.6819 -623.062
lclavicle -1.78906e-015 -7.31528e-014
lhumerus 55.6266 -21.8131 86.2755
lradius 14.3973
lwrist -35.0823
lhand -20.4783 3.71892
lfingers 7.12502
lthumb 5.87804 33.6174
rfemur -25.4997 25.32 13.3233
rtibia 6.86998
rfoot -8.17926 -23.9962
rtoes -0.882471
lfemur -13.3037 -55.3302 4.10117
ltibia -5.79747
lfoot -67.0658 54.2446
ltoes 44.2983
1390
root 0.154198 17.5974 7.74768 21.5916 -5.55348 -8.58358
lowerback 5.87895 0.928077 5.6272
upperback 1.02986 1.69552 4.93284
thorax -2.2226 0.810683 1.8132
lowerneck -14.2879 -3.96893 -4.42645
upperneck 7.35176 -4.99595 4.76009
head 4.75617 -2.27796 1.77979
rclavicle -1.07344e-014 5.00937e-014
rhumerus 48.0252 14.3569 -69.5482
rradius 41.1297
rwrist 33.7734
rhand 2.73804 -69.5072
rfingers 7.12502
rthumb 28.2102 -622.596
lclavicle -1.07344e-014 5.00937e-014
lhumerus 55.7069 -22.1015 85.6481
lradius 14.5551
lwrist -34.8164
lhand -20.8325 3.87544
lfingers 7.12502
lthumb 5.53611 33.7831
rfemur -25.5029 25.2922 13.2507
rtibia 6.86409
rfoot -8.14985 -23.9659
rtoes -1.04067
lfemur -13.311 -55.3385 4.01477
ltibia -5.76284
lfoot -67.1585 54.0858
ltoes 44.5051
1391
root 0.155841 17.5971 7.7465 21.5769 -5.57716 -8.5731
lowerback 5.89263 0.92168 5.60091
upperback 1.03911 1.68608 4.93934
thorax -2.22172 0.80628 1.83512
lowerneck -14.2772 -3.96539 -4.45218
upperneck 7.38178 -4.98879 4.76952
head 4.76433 -2.27454 1.78745
rclavicle 3.55825e-014 7.95139e-016
rhumerus 48.0614 14.4377 -69.4663
rradius 41.2844
rwrist 33.6246
rhand 2.16726 -70.1385
rfingers 7.12502
rthumb 27.6645 -621.876
lclavicle 3.55825e-014 7.95139e-016
lhumerus 55.8548 -22.4372 84.9196
lradius 14.7361
lwrist -34.061
lhand -21.0865 3.91802
lfingers 7.12502
lthumb 5.29082 33.832
rfemur -25.4869 25.2686 13.2476
rtibia 6.86958
rfoot -8.18056 -23.9013
rtoes -1.05083
lfemur -13.2345 -55.3526 3.93412
ltibia -5.77726
lfoot -67.268 53.9507
ltoes 44.6512
1392
root 0.156133 17.5969 7.74519 21.5785 -5.59001 -8.57146
lowerback 5.87086 0.922673 5.55483
upperback 1.05889 1.68149 4.95873
thorax -2.19098 0.805077 1.88174
lowerneck -14.3194 -3.95558 -4.47731
upperneck 7.4375 -4.97228 4.78009
head 4.78864 -2.26552 1.79524
rclavicle 5.96354e-015 -1.74931e-014
rhumerus 48.1106 14.5335 -69.2553
rradius 41.4924
rwrist 33.3291
rhand 1.53424 -70.6462
rfingers 7.12502
rthumb 27.0591 -621.273
lclavicle 5.96354e-015 -1.74931e-014
lhumerus 56.0318 -22.7319 84.2814
lradius 14.9036
lwrist -33.1346
lhand -21.204 3.81204
lfingers 7.12502
lthumb 5.1774 33.7288
rfemur -25.4985 25.247 13.2488
rtibia 6.88687
rfoot -8.18151 -23.8621
rtoes -1.03917
lfemur -13.1803 -55.3628 3.89904
ltibia -5.81579
lfoot -67.3383 53.9038
ltoes 44.7178
1393
root 0.155745 17.5971 7.74402 21.6067 -5.60093 -8.5592
lowerback 5.83254 0.935345 5.51165
upperback 1.06489 1.69168 4.95488
thorax -2.16436 0.810992 1.90165
lowerneck -13.3571 -3.82343 -5.21614
upperneck 6.41217 -4.77397 5.83462
head 4.35305 -2.1453 2.27764
rclavicle 9.54166e-015 2.14687e-014
rhumerus 47.714 14.3381 -69.7206
rradius 42.0532
rwrist 33.6834
rhand 1.43105 -71.1694
rfingers 7.12502
rthumb 26.9603 -620.734
lclavicle 9.54166e-015 2.14687e-014
lhumerus 56.188 -22.9513 83.8449
lradius 15.0099
lwrist -32.4156
lhand -21.1741 3.69256
lfingers 7.12502
lthumb 5.20624 33.6086
rfemur -25.5565 25.272 13.1999
rtibia 6.89079
rfoot -8.13339 -23.9119
rtoes -0.989128
lfemur -13.2116 -55.3581 3.93043
ltibia -5.85641
lfoot -67.3905 53.883
ltoes 44.7935
